<?xml version="1.0" encoding="UTF-8" standalone="no"?>
<svg
   xmlns:dc="http://purl.org/dc/elements/1.1/"
   xmlns:cc="http://creativecommons.org/ns#"
   xmlns:rdf="http://www.w3.org/1999/02/22-rdf-syntax-ns#"
   xmlns:svg="http://www.w3.org/2000/svg"
   xmlns="http://www.w3.org/2000/svg"
   viewBox="0 0 453.95114 102.38335"
   height="102.38335"
   width="453.95114"
   version="1.1"
   id="svg3390">
  <metadata
     id="metadata3396">
    <rdf:RDF>
      <cc:Work
         rdf:about="">
        <dc:format>image/svg+xml</dc:format>
        <dc:type
           rdf:resource="http://purl.org/dc/dcmitype/StillImage" />
        <dc:title></dc:title>
      </cc:Work>
    </rdf:RDF>
  </metadata>
  <defs
     id="defs3394" />
  <path
     id="path3402"
     d="m 419.17104,100.88551 0,-1.497712 0.7393,-5.5e-4 c 0.815,-5.5e-4 1.4907,-0.32257 1.8601,-0.88644 0.1215,-0.18543 0.4366,-0.97758 0.7002,-1.76033 l 0.4793,-1.42318 -2.0044,-5.32218 c -1.1023,-2.92717 -2.2787,-6.08253 -2.614,-7.0119 -0.3354,-0.92935 -0.6538,-1.73979 -0.7075,-1.80097 -0.054,-0.0612 -0.5876,0.46159 -1.1863,1.1617 -0.5988,0.70011 -1.1,1.27267 -1.1139,1.27234 -0.014,-2.7e-4 -0.3368,-0.15874 -0.7179,-0.35203 -1.5267,-0.77454 -3.2802,-0.2678 -4.1438,1.19749 l -0.3735,0.63366 -0.041,5.38605 -0.041,5.38605 -1.5427,0 -1.5426,0 0,-7.95587 0,-7.95587 1.5489,0 1.5489,0 0,0.77446 c 0,0.42596 0.038,0.77447 0.084,0.77447 0.046,0 0.3695,-0.25135 0.7185,-0.55855 0.9236,-0.81302 1.9622,-1.1719 3.4218,-1.18248 1.0632,-0.008 1.3049,0.0419 2.1632,0.44374 0.5315,0.24883 0.9893,0.45242 1.0173,0.45242 0.028,0 -0.01,-0.15841 -0.083,-0.35203 l -0.1339,-0.35203 1.6677,0 1.6676,0 1.8772,5.55307 c 1.0324,3.05419 1.9196,5.52687 1.9714,5.49484 0.052,-0.032 0.9342,-2.53091 1.9609,-5.55307 l 1.8666,-5.49478 1.6873,0 c 1.5499,0 1.6795,0.0201 1.5906,0.24642 -0.2125,0.54138 -2.8309,7.86533 -3.6624,10.24407 -1.8954,5.42273 -3.217,9.03924 -3.5281,9.654542 -0.381,0.75363 -1.2483,1.57993 -1.9981,1.90389 -0.2972,0.12834 -1.1052,0.2623 -1.8338,0.30401 l -1.3025,0.0746 0,-1.49772 z m -305.2706,-2.836222 c -7.0051,-0.93867 -12.8151,-3.74567 -17.627196,-8.51625 -1.7642,-1.74893 -3.4504,-3.78355 -3.2661,-3.94087 0.063,-0.0535 2.205,-1.60724 4.7608,-3.45268 2.555696,-1.84545 5.153696,-3.7227 5.773296,-4.17167 l 1.1264,-0.8163 0.3399,0.45164 c 0.1869,0.2484 0.8206,0.93103 1.4081,1.51696 3.2817,3.27259 7.8684,4.8913 12.6853,4.47684 7.185,-0.61819 12.7475,-5.1306 14.5058,-11.7674 0.7278,-2.74714 0.7001,-1.2746 0.701,-37.39124 l 0,-33.61884004 7.325,0 7.3249,0 -0.041,35.02696004 c -0.045,38.64538 0.023,35.65917 -0.9004,39.45122 -2.1056,8.6527 -7.7604,15.68608 -15.7498,19.58955 -3.2247,1.57552 -6.0545,2.48476 -9.4344,3.03126 -1.9523,0.31568 -7.0006,0.38962 -8.9319,0.13082 z m 140.5207,0.1272 c -6.6906,-0.56465 -11.7264,-1.6473 -17.1086,-3.67818 -4.9606,-1.87175 -10.5014,-5.14522 -14.5741,-8.61023 -0.5034,-0.4283 -0.9447,-0.80074 -0.9807,-0.82766 -0.099,-0.0742 -0.1032,-0.0694 4.6418,-5.47012 2.4396,-2.77667 4.5349,-5.16948 4.6563,-5.31736 0.2126,-0.25901 0.2695,-0.23283 1.5489,0.71305 7.488,5.53564 16.7906,8.63557 25.9703,8.6542 2.8784,0.006 4.6441,-0.16625 6.9592,-0.67827 6.5677,-1.45255 10.6541,-4.80722 12.067,-9.90627 0.3154,-1.13845 0.3557,-4.55775 0.069,-5.84336 -1.1198,-5.01798 -4.4877,-8.30188 -9.8719,-9.62572 -0.6582,-0.16186 -3.0661,-0.54968 -5.3508,-0.86182 -7.7338,-1.05662 -11.7646,-1.67024 -13.4539,-2.04813 -10.3553,-2.31639 -17.6114,-8.363 -20.6858,-17.23783 -2.4304,-7.01576 -1.8018,-16.09838 1.5669,-22.63843 3.7693,-7.31809 10.5538,-12.16693 19.5477,-13.97067004 3.4421,-0.69031 5.9494,-0.89546 9.9273,-0.81222 8.536,0.17863 15.6283,2.01776004 23.8302,6.17944004 1.9775,1.00341 6.0989,3.38302 6.4263,3.71045 0.034,0.0347 -1.7598,2.77832 -3.9879,6.0969 l -4.0511,6.03378 -1.2872,-0.78036 c -7.0117,-4.25102 -15.0936,-6.65439 -22.4089,-6.66394 -3.2068,-0.004 -5.68,0.4286 -8.1878,1.43278 -3.6543,1.46323 -6.4389,4.34214 -7.5596,7.81571 -0.3663,1.13498 -0.6571,3.10923 -0.6571,4.45996 0,5.45136 3.5219,9.60417 9.8694,11.63731 2.1584,0.69134 4.867,1.15426 12.4773,2.13244 2.4034,0.30889 5.1544,0.72714 6.1135,0.92944 9.7161,2.04929 17.2595,8.07388 20.5406,16.40506 1.4151,3.5932 2.0015,6.70549 2.0146,10.69249 0.016,4.9889 -0.8653,8.99098 -2.869,13.0251 -1.1186,2.25217 -2.4088,4.03616 -4.2836,5.92322 -2.3939,2.40965 -4.2266,3.71166 -7.4292,5.27808 -3.6861,1.80282 -8.0685,3.01808 -13.1997,3.66027 -1.1834,0.14811 -9.0543,0.29427 -10.2793,0.19089 z M 36.887944,97.446348 c -0.3169,-0.0987 -0.307,-0.11652 0.2321,-0.41952 1.376,-0.77328 2.8482,-2.95149 3.3535,-4.96125 0.9239,-3.67551 -1.6257,-7.18063 -5.7562,-7.91312 -1.5548,-0.27574 -4.2789,0.23541 -6.2667,1.17589 -0.8451,0.39981 -0.9063,0.46425 -1.4312,1.50824 -0.7727,1.53684 -1.7209,2.34417 -3.5717,3.04077 -3.0104,1.13312 -7.6435,0.15391 -11.0401,-2.33334 -1.7664,-1.29357 -3.8830004,-3.57193 -5.3488004,-5.75771 -1.3418,-2.0009 -2.9959,-5.05416 -3.2859,-6.06557 -0.1008,-0.35122 0,-0.29783 0.9663,0.51971 1.2852,1.08577 3.1489,2.04846 4.81,2.48467 1.2761004,0.33512 1.6741004,0.34664 8.2375004,0.2387 3.0298,-0.0498 4.0281,0.1279 5.9153,1.05313 1.4899,0.73045 1.9578,1.21297 2.8076,2.89586 0.6309,1.24939 0.7942,1.47311 1.0537,1.4436 0.5022,-0.0571 3.859,-1.36086 3.9092,-1.51828 0.026,-0.0798 -0.3821,-0.35484 -0.9057,-0.6112 -1.4527,-0.71131 -3.398,-2.05858 -5.8528,-4.05339 -3.156,-2.56463 -4.0946,-3.18337 -5.4791,-3.61172 -1.5734,-0.48679 -2.4965,-0.66097 -3.503,-0.66097 -0.8324,0 -0.8529,0.01 -1.4923,0.70389 -0.3584,0.38904 -1.0013,0.87717 -1.4373,1.09129 -0.7157,0.35148 -0.9327,0.3874 -2.34,0.3874 -1.4614004,0 -1.6041004,-0.0261 -2.4642004,-0.45095 -4.799,-2.37018 -8.42739995,-9.61358 -7.95709995,-15.8851 0.055,-0.73471 0.1451,-1.33584 0.1999,-1.33584 0.055,0 0.2139,0.31688 0.3532,0.70417 0.1392,0.3873 0.50769995,1.10016 0.81879995,1.58414 1.4935,2.32303 3.0647,3.64427 6.0155,5.0584 1.1277,0.54048 2.6215004,1.26276 3.3196004,1.60507 2.062,1.01124 3.4163,2.40107 3.8115,3.91141 0.272,1.03948 0.6294,1.29534 1.9787,1.41628 0.6093,0.0547 1.3812,0.16764 1.7153,0.25116 1.1073,0.27673 1.0349,0.046 -0.7882,-2.51338 -0.9292,-1.3044 -1.979,-2.94192 -2.333,-3.63894 -0.3541,-0.69702 -0.7674,-1.42319 -0.9185,-1.61372 l -0.2748,-0.34641 -0.764,0.24081 c -0.4201,0.13244 -0.9709,0.2408 -1.224,0.2408 -1.3778,0 -3.9021004,-1.07968 -5.3708004,-2.29707 -2.2087,-1.83091 -4.0255,-5.27285 -4.7199,-8.94223 -0.3405,-1.79944 -0.2052,-4.37413 0.3417,-6.503 0.4785,-1.86221 2.1277,-6.10796 2.5282,-6.50844 0.2665,-0.26651 0.2714,-0.24801 0.3524,1.32373 0.1994,3.86649 1.7511,6.92847 6.2337004,12.30047 1.8752,2.24735 2.6231,3.31418 3.2631,4.65453 0.4631,0.96993 0.5309,1.24147 0.5246,2.09968 -0.01,0.54213 -0.06,1.3133 -0.1239,1.71372 -0.11,0.68671 -0.084,0.78823 0.4552,1.78811 0.831,1.54061 1.9069,3.11016 3.8256,5.58054 3.3566,4.32193 6.8874,7.40997 11.008,9.62765 1.4667,0.78938 2.1464,1.0554 4.741,1.85558 3.0559,0.94245 3.9081,1.29656 5.142,2.13673 0.6134,0.4177 1.2024,0.72602 1.3089,0.68516 0.1218,-0.0468 0.2021,-0.3237 0.2166,-0.74757 0.1015,-2.95617 -0.5521,-4.68234 -2.4955,-6.59003 -0.6325,-0.62105 -1.3803,-1.25311 -1.6616,-1.40457 l -0.5114,-0.27541 -1.415,0.73571 c -1.3255,0.6892 -1.4795,0.73572 -2.4352,0.73572 -1.3012,0 -2.4074,-0.2826 -3.8284,-0.97796 -2.0584,-1.00726 -3.8287,-2.77901 -5.7764,-5.78101 -0.5276,-0.81319 -1.6767,-2.56862 -2.5535,-3.90094 -0.8769,-1.33233 -1.5943,-2.45295 -1.5943,-2.49027 0,-0.0373 0.5227,0.17454 1.1616,0.47082 1.9384,0.89886 3.208,1.26122 5.4867,1.566 5.0444,0.67469 8.3082,2.06994 9.9601,4.25779 0.777,1.02925 1.0958,1.82476 1.2126,3.02597 l 0.1,1.02842 0.7921,0.39984 c 0.4356,0.21991 1.4476,0.91354 2.2487,1.5414 0.8012,0.62786 1.5225,1.14156 1.6031,1.14156 0.262,0 -0.022,-2.20886 -0.4585,-3.56713 -1.1656,-3.62556 -3.979,-6.58244 -9.2562,-9.72841 -1.9269,-1.14874 -3.7034,-1.99432 -4.648,-2.21235 -0.686,-0.15834 -0.72,-0.15088 -1.2502,0.27435 -0.8082,0.64817 -1.6419,0.90599 -2.9388,0.90878 -2.6598,0.006 -4.4484,-1.46506 -7.3497,-6.04356 -0.7594,-1.19826 -2.1682,-3.13869 -3.1308,-4.31208 -1.2509,-1.52481 -1.6124,-2.04168 -1.2673,-1.81183 1.5045,1.00211 3.0656,1.43901 6.6359,1.85723 4.1867,0.49043 5.6228,0.98031 7.0521,2.40565 1.1085,1.10547 1.6452,2.27342 1.8247,3.97093 0.075,0.70982 0.1567,1.31213 0.1815,1.33846 0.1271,0.13482 4.7617,1.85187 4.8257,1.78786 0.1569,-0.15688 -0.4372,-1.88383 -1.0369,-3.0142 -2.8385,-5.35069 -6.2075,-8.2791 -11.5371,-10.02823 -1.6536,-0.5427 -2.3096,-0.56602 -3.7102,-0.13192 -3.5901,1.11282 -7.0210004,-1.5521 -8.0988004,-6.29076 -1.0028,-4.40905 0.4197,-9.5975 3.2447004,-11.83499 l 0.5507,-0.43612 -0.01,1.71393 c -0.01,3.05753 0.6035,4.3021 3.5539,7.23166 3.0947,3.07274 3.7838,4.57699 3.3479,7.308 l -0.1143,0.71593 1.249,0.44383 c 0.6869,0.2441 1.9143,0.66165 2.7275,0.92787 l 1.4785,0.48405 0.043,-0.48096 c 0.1147,-1.26338 -0.9182,-3.72364 -2.5607,-6.09982 -0.5682,-0.82193 -1.253,-1.96966 -1.5219,-2.55051 -0.269,-0.58084 -0.5791,-1.12691 -0.6892,-1.21347 -0.1101,-0.0866 -0.5488,-0.2695 -0.9747,-0.40654 -1.1695,-0.37624 -1.7283,-0.69693 -2.2816,-1.30929 -0.7639,-0.84559 -1.2097,-1.7002 -1.5202,-2.91384 -0.5321,-2.08061 -0.2713,-4.20255 0.7788,-6.33709 1.3226,-2.68845 5.3536,-7.40142 7.1051,-8.30713 0.3722,-0.19244 0.632,-0.0756 0.295,0.13265 -0.3909,0.24158 -1.1937,3.08343 -1.3547,4.795 -0.1328,1.41288 0.1144,2.52166 1.0825,4.85501 1.1048,2.66304 1.2923,3.42053 1.219,4.92609 -0.045,0.92804 -0.1469,1.39482 -0.4463,2.04668 -0.4556,0.99187 -0.75,1.33097 -1.666,1.91876 -0.3723,0.23892 -0.677,0.52982 -0.677,0.64645 0,0.63027 2.1455,3.70133 2.5858,3.70133 0.1022,0 0.2646,-0.2693 0.3608,-0.59845 0.2672,-0.91446 0.9027,-1.97705 2.337,-3.90752 l 1.3077,-1.76015 -0.4142,-1.76015 c -0.3882,-1.65007 -0.4049,-1.8371 -0.2651,-2.99064 0.1907,-1.57356 0.1224,-1.83054 -0.5677,-2.135 -2.1117,-0.93164 -2.7532,-5.03595 -1.2795,-8.18524 1.5382,-3.28703 5.62,-7.17419 10.0349,-9.55637 1.1886,-0.64133 3.5018,-1.57134 3.5018,-1.40785 0,0.16492 -0.6543,0.99398 -1.8627,2.36024 -2.5596,2.89386 -2.7917,3.54853 -3.0765,8.67855 -0.2507,4.51512 -0.6512,5.88658 -2.1149,7.24171 -0.7756,0.71805 -1.2919,0.98213 -2.6076,1.33367 -0.5521,0.14752 -0.5835,0.18543 -0.6688,0.80817 -0.049,0.35937 -0.09,0.92658 -0.09,1.26046 0,1.15224 0.5024,2.87392 0.8385,2.87392 0.07,0 0.4962,-0.38876 0.9469,-0.86393 0.4508,-0.47515 1.675,-1.60737 2.7206,-2.51603 1.0455,-0.90866 2.2904,-2.05997 2.7663,-2.55847 0.8228,-0.86168 2.0213,-2.53999 2.0213,-2.83034 0,-0.0746 -0.2525,-0.69643 -0.5612,-1.38191 -1.6354,-3.63215 -0.7985,-6.48208 3.3045,-11.25272 0.8326,-0.96808 1.7547,-2.07698 2.0492,-2.46421 0.6821,-0.89733 1.5943,-2.60267 1.9009,-3.55408 0.1309,-0.40581 0.2853,-0.70857 0.3431,-0.67279 0.473,0.2923 2.2091,5.03258 2.5981,7.09386 0.2543,1.34744 0.2925,4.07718 0.074,5.30945 -0.8634,4.8746 -3.9597,7.93691 -8.0336,7.94545 -0.4559,6.9e-4 -0.5755,0.0901 -1.1818,0.88115 -0.3711,0.48403 -2.6822,2.87608 -5.136,5.31565 -5.4616,5.42996 -6.554,6.82677 -7.4645,9.54459 -0.5345,1.5953 -0.5331,2.19982 0.01,3.77091 0.2388,0.69219 0.5212,1.82881 0.6276,2.52583 l 0.1932,1.26731 0.8863,0.81663 c 2.0176,1.85929 2.3646,2.05285 2.3646,1.3189 0,-0.17162 0.1891,-1.08627 0.4202,-2.03254 0.5674,-2.32344 0.5682,-2.41596 0.028,-3.09838 -1.3892,-1.75396 -1.4724,-4.29926 -0.2241,-6.85905 1.1703,-2.39997 3.0196,-4.32123 6.8165,-7.08153 1.1228,-0.81626 2.6594,-1.9807 3.4147,-2.58765 0.7553,-0.60694 1.3733,-1.0775 1.3733,-1.04569 0,0.0318 -0.1313,0.36407 -0.2918,0.73836 -0.7088,1.65315 -1.2661,3.89735 -1.4772,5.94794 -0.241,2.34183 -0.776,5.33017 -1.2055,6.73314 -0.4208,1.3748 -1.177,2.74011 -1.9317,3.48795 -0.795,0.78761 -2.3728,1.59291 -3.3314,1.70028 -1.1528,0.12912 -1.2997,0.18351 -1.3961,0.51678 -0.9906,3.4258 -0.9244,5.16797 0.2899,7.63418 0.7042,1.43029 0.836,1.52766 1.0349,0.76516 0.6292,-2.41124 1.4312,-4.32972 2.6612,-6.36612 0.6436,-1.06559 3.4226,-4.64099 5.7449,-7.39153 0.402,-0.47614 0.9558,-1.2494 1.2307,-1.71834 l 0.4997,-0.85265 -0.3253,-0.52296 c -0.6098,-0.98047 -0.8333,-1.75343 -0.9043,-3.12808 -0.1245,-2.40925 0.4972,-3.97888 3.2113,-8.10795 1.9478,-2.96324 2.1916,-3.45533 2.6103,-5.26908 0.1699,-0.73575 0.3459,-1.24267 0.3913,-1.1265 0.5576,1.42876 1.5293,4.4365 1.6995,5.26028 0.5048,2.4439 0.4206,5.52226 -0.22,8.04645 -0.7431,2.92753 -2.4408,4.88221 -4.6998,5.41123 -0.6983,0.16353 -0.7137,0.17934 -1.8814,1.92757 -0.6475,0.96948 -2.0629,2.84675 -3.1455,4.17171 -3.2204,3.94184 -4.1998,5.62735 -5.0973,8.77301 -0.6888,2.41372 -0.8367,3.62204 -0.5692,4.6491 0.4702,1.80524 1.4101,2.94778 4.0048,4.86839 1.8389,1.3611 2.862,2.40891 4.1091,4.20851 0.4768,0.68809 0.9197,1.21853 0.984,1.17875 0.1924,-0.11893 0.1325,-2.48472 -0.093,-3.66208 -0.1154,-0.6031 -0.353,-1.38295 -0.528,-1.733 -0.3129,-0.62564 -0.3362,-0.64034 -1.3743,-0.86399 -1.3452,-0.2898 -1.8576,-0.56111 -2.6806,-1.41953 -2.5522,-2.66183 -2.2266,-6.80686 0.9219,-11.73874 1.2429,-1.94683 4.434,-5.94155 4.434,-5.55057 0,0.0377 -0.1389,0.44666 -0.3086,0.90865 -0.2379,0.64724 -0.3106,1.16312 -0.3168,2.24811 -0.01,1.67689 0.2279,2.54752 1.4912,5.46236 0.9971,2.30105 1.2827,3.48053 1.3023,5.38016 0.013,1.29562 -0.019,1.47379 -0.4015,2.23001 -0.2417,0.47731 -0.7352,1.11352 -1.1772,1.51747 -0.8336,0.76192 -0.8229,0.67422 -0.2509,2.0399 0.484,1.15568 1.0684,3.37509 1.0715,4.06945 0.01,1.06774 0.1981,1.08316 1.1261,0.0899 1.4613,-1.56389 2.7673,-4.61747 3.3127,-7.74546 0.2435,-1.396 0.2699,-4.20591 0.051,-5.46066 -0.1497,-0.85931 -0.1755,-0.89903 -0.7805,-1.2012 -0.745,-0.37204 -1.8732,-1.52549 -2.2886,-2.33958 -0.4928,-0.966 -0.7191,-2.10746 -0.7164,-3.61425 0.01,-2.50399 0.6319,-4.57396 1.9353,-6.3824 0.4306,-0.59744 1.146,-1.59317 1.5898,-2.21275 0.4439,-0.61957 0.9604,-1.26904 1.1481,-1.44328 l 0.3412,-0.3168 0.1537,1.79532 c 0.1291,1.50803 0.2365,2.00938 0.6714,3.13303 1.6299,4.21092 1.9991,5.63391 1.8471,7.11778 -0.1801,1.75821 -0.9275,3.24381 -1.9976,3.97097 l -0.5204,0.35366 0.125,1.35459 c 0.1903,2.06 0.1225,5.13571 -0.1399,6.35342 -0.2324,1.07837 -0.2997,2.11217 -0.1375,2.11217 0.075,0 4.2495,-2.34761 4.3913,-2.46962 0.025,-0.0218 0.1596,-0.48127 0.2984,-1.02109 0.7626,-2.96498 3.8437,-4.91473 8.7379,-5.52957 2.1266,-0.26714 5.3639,-0.23933 6.6506,0.0571 0.5987,0.13795 1.1222,0.30517 1.1633,0.37161 0.041,0.0665 -0.2826,0.28436 -0.7192,0.48424 -1.2469,0.57084 -2.345,1.43449 -4.7713,3.75256 -3.9282,3.75306 -6.1965,4.89621 -8.665,4.36682 -0.4184,-0.0897 -1.0663,-0.35929 -1.4399,-0.59901 l -0.6792,-0.43586 -0.8899,0.3782 c -1.2599,0.53546 -3.2305,1.84461 -4.3428,2.88516 -1.5825,1.48028 -3.1679,3.78322 -3.8504,5.59289 -0.4221,1.1192 -0.6603,3.57231 -0.3469,3.57231 0.096,0 0.5467,-0.33675 1.0015,-0.74834 0.4548,-0.41159 1.3956,-1.06071 2.0907,-1.4425 l 1.2637,-0.69415 0.1568,-0.90043 c 0.332,-1.9068 1.4389,-3.2061 3.3519,-3.93447 1.1323,-0.43111 1.9337,-0.62181 5.1045,-1.21453 3.0606,-0.57212 4.522,-1.1551 6.2612,-2.49771 1.3478,-1.04045 1.3627,-1.04815 1.1999,-0.62013 -0.2702,0.7107 -0.7767,1.60306 -2.0853,3.67375 -2.8111,4.44855 -4.8252,6.62826 -7.1852,7.77633 -1.7591,0.85576 -2.8336,0.96178 -4.06,0.40059 -0.4543,-0.20786 -1.1166,-0.56436 -1.4719,-0.79223 -0.3553,-0.22786 -0.7355,-0.41425 -0.8449,-0.41419 -0.1094,6e-5 -0.5794,0.18012 -1.0444,0.40014 -1.5563,0.73623 -2.9408,2.67994 -3.5201,4.94177 -0.338,1.31982 -0.3031,3.24751 0.059,3.24751 0.061,0 0.6637,-0.34775 1.3406,-0.77275 0.945,-0.59328 1.6613,-0.90444 3.0842,-1.33974 2.4349,-0.74493 3.0355,-0.98621 5.3444,-2.14688 3.6422,-1.83093 6.5996,-4.04493 8.5517,-6.40201 0.6174,-0.74534 1.9616,-2.59594 2.9873,-4.11244 2.0397,-3.01573 3.6791,-5.24624 4.2383,-5.7665 0.3425,-0.31874 0.3552,-0.38546 0.2813,-1.47852 -0.064,-0.95092 -0.027,-1.27773 0.2205,-1.93035 0.5272,-1.39105 1.7874,-2.53901 3.5499,-3.23369 0.4059,-0.16004 1.8834,-0.59857 3.2831,-0.97451 1.3996,-0.37593 2.9065,-0.81953 3.3485,-0.98577 1.1998,-0.45127 2.7543,-1.52961 3.6749,-2.54933 l 0.8175,-0.90547 -0.086,1.40813 c -0.1446,2.37569 -0.3242,3.10001 -1.2164,4.90367 -1.7424,3.52279 -4.5759,6.01767 -7.5501,6.64793 -1.5018,0.31827 -2.1363,0.27554 -4.6193,-0.31111 -0.6732,-0.15906 -2.3559,1.66049 -3.9293,4.24881 -0.3766,0.61958 -1.0784,1.72847 -1.5593,2.46421 -0.481,0.73574 -0.9185,1.48029 -0.9722,1.65454 -0.1245,0.4043 0.04,0.40651 1.6112,0.0216 0.6583,-0.16128 1.6658,-0.36849 2.2389,-0.46047 l 1.0422,-0.16725 0.2956,-0.83201 c 0.5386,-1.516 2.3346,-3.105 4.2115,-3.72624 0.4794,-0.15868 1.8538,-0.50512 3.0542,-0.76985 2.5156,-0.55476 3.741,-0.98422 4.8709,-1.70696 1.0286,-0.65798 2.235,-1.79454 2.7629,-2.60291 l 0.4138,-0.63365 -0.085,0.94705 c -0.107,1.19776 -0.6205,2.97877 -1.2692,4.40238 -1.189,2.60887 -3.4198,5.20795 -5.8369,6.80032 -2.2216,1.46358 -3.9072,1.92904 -5.5041,1.51994 -1.0524,-0.26962 -2.119,-0.90653 -2.4013,-1.43389 -0.3663,-0.68448 -1.252,-0.78924 -2.9661,-0.35085 -2.7316,0.69862 -4.3468,1.58234 -6.2895,3.44113 -1.8146,1.7362 -2.6226,2.34362 -4.6265,3.47778 -2.113,1.19588 -2.7216,1.57782 -2.724,1.70948 0,0.0526 0.3626,0.19745 0.8079,0.32191 0.4454,0.12447 1.4294,0.45445 2.1868,0.73331 0.7574,0.27885 1.3948,0.4825 1.4163,0.45255 0.021,-0.0299 0.2218,-0.49376 0.445,-1.03069 0.5126,-1.23294 1.8192,-2.66304 3.0158,-3.30081 1.7462,-0.9307 2.4155,-1.01011 8.171,-0.9694 l 5.1477,0.0364 1.2673,-0.39539 c 1.8276,-0.57021 2.9085,-1.20341 5.5506,-3.25167 0.1662,-0.12884 0.185,-0.0803 0.1118,0.2892 -0.1544,0.78007 -0.924,2.23479 -2.205,4.16822 -4.4531,6.72125 -9.0148,10.18285 -13.8071,10.47755 -2.3783,0.14624 -4.5253,-0.46472 -6.1367,-1.74632 -0.532,-0.42303 -0.8693,-0.86444 -1.3146,-1.7204 -0.6783,-1.3038 -0.9414,-1.5148 -2.5464,-2.04159 -3.6237,-1.18945 -5.8465,-1.08752 -8.0261,0.36805 -1.0855,0.72485 -1.8522,1.62108 -2.5042,2.92741 -0.5098,1.02155 -0.5234,1.08947 -0.5234,2.61563 0,1.55937 0,1.5726 0.5968,2.77131 0.6752,1.36257 1.5559,2.41636 2.763,3.30586 l 0.8251,0.60808 -5.4146,0 c -2.9781,0 -6.1692,0.0299 -7.0913,0.0665 -0.9221,0.0366 -1.8255,0.0201 -2.0076,-0.0366 z m 144.451896,-41.85104 0,-41.82113 -13.2364,0 -13.2363,0 0,-6.47735 0,-6.47735004 33.7949,0 33.7948,0 0,6.47735004 0,6.47735 -13.2363,0 -13.2363,0 0,41.82113 0,41.82113 -7.3222,0 -7.3222,0 0,-41.82113 z m 127.9785,40.3979 c -2.2334,-0.18355 -4.64,-1.04697 -6.323,-2.26853 -0.4569,-0.33166 -0.8326,-0.64158 -0.8349,-0.68872 0,-0.0471 0.4785,-0.63616 1.0682,-1.30892 1.0268,-1.17126 1.0851,-1.2142 1.3729,-1.01084 3.2401,2.28894 7.7178,2.66046 9.7124,0.80585 1.1615,-1.07992 1.1803,-2.88345 0.042,-4.02006 -0.6991,-0.69811 -1.118,-0.83501 -3.686,-1.20444 -2.3978,-0.34496 -2.9972,-0.49618 -4.0606,-1.02437 -2.3966,-1.19047 -3.6432,-3.74345 -3.2053,-6.5639 0.3802,-2.44788 1.8024,-4.18185 4.0695,-4.96188 2.0213,-0.69541 4.6805,-0.62064 7.0784,0.19901 1.4246,0.48698 3.2346,1.41854 3.2346,1.66483 0,0.12186 -1.3507,2.16167 -1.695,2.55978 -0.055,0.0639 -0.5361,-0.10302 -1.0685,-0.37097 -2.7595,-1.38879 -5.4337,-1.56898 -7.0469,-0.47482 -1.4245,0.96612 -1.726,2.91081 -0.6497,4.18996 0.6519,0.77469 1.5432,1.09872 4.0566,1.47477 1.2707,0.19013 2.6518,0.47341 3.069,0.62952 1.6459,0.6158 3.0076,1.9284 3.6491,3.51769 0.2626,0.65047 0.3127,1.045 0.3127,2.4642 0,2.11067 -0.2751,2.91259 -1.4252,4.15482 -1.6162,1.74571 -4.2614,2.51718 -7.6702,2.23702 z m 18.1138,-0.007 c -4.0646,-0.43328 -6.197,-3.5616 -5.9358,-8.70807 0.1798,-3.53992 1.3603,-5.77182 3.6434,-6.88784 2.4744,-1.20954 5.5742,-0.71256 7.4872,1.20037 1.4579,1.45794 1.9162,2.80825 1.9162,5.64665 l 0,1.87137 -4.99,0 -4.99,0 0.074,0.52804 c 0.3074,2.18535 1.4383,3.27303 3.5233,3.38847 1.228,0.068 2.1762,-0.21157 3.0943,-0.91246 0.3523,-0.26887 0.7134,-0.45874 0.8026,-0.42193 0.089,0.0368 0.6298,0.4668 1.2015,0.95554 l 1.0395,0.88861 -0.7268,0.66829 c -1.5291,1.406 -3.7167,2.04126 -6.1397,1.78296 z m 3.9391,-10.13706 c -0.2217,-1.31247 -0.8911,-2.34231 -1.8123,-2.78828 -0.7073,-0.34238 -2.2384,-0.39355 -2.941,-0.0983 -0.9624,0.40441 -1.7182,1.49586 -1.9201,2.77257 l -0.1104,0.69813 3.4413,0 3.4413,0 -0.099,-0.58412 z m 63.2281,10.20225 c -2.3594,-0.23277 -3.9037,-1.17258 -4.6982,-2.85916 -0.3032,-0.64332 -0.3655,-0.97954 -0.368,-1.98556 0,-1.10945 0.038,-1.29211 0.4898,-2.17634 0.565,-1.10645 1.2444,-1.70108 2.4949,-2.18345 0.7214,-0.27827 1.1488,-0.32178 3.7494,-0.38161 l 2.9352,-0.0675 -0.048,-1.24048 c -0.045,-1.14956 -0.079,-1.27216 -0.463,-1.67287 -0.5375,-0.56074 -1.1173,-0.71049 -2.7548,-0.71145 -1.6048,-6.9e-4 -2.1636,0.14047 -2.7358,0.69238 l -0.4316,0.41624 -1.24,-0.92781 -1.2401,-0.9278 0.536,-0.55374 c 1.227,-1.26747 2.5526,-1.71659 5.042,-1.70829 3.3827,0.0113 5.3366,1.0029 6.1242,3.10795 0.2672,0.71415 0.2828,1.09237 0.2828,6.87575 l 0,6.12004 -1.549,0 -1.5489,0 0,-0.63366 c 0,-0.34851 -0.023,-0.63365 -0.051,-0.63365 -0.028,0 -0.2852,0.22112 -0.5718,0.49137 -0.7268,0.68553 -2.4625,1.1068 -3.9539,0.95967 z m 3.5542,-3.32497 c 0.7506,-0.40154 0.9337,-0.8253 0.9987,-2.31166 l 0.058,-1.32847 -2.6575,0.0464 c -2.4728,0.0432 -2.6931,0.0686 -3.1705,0.36545 -1.408,0.87555 -1.1208,2.7503 0.513,3.34905 0.8076,0.29596 3.6288,0.21594 4.2583,-0.12077 z m -59.5598,-4.81461 0.037,-7.95589 1.5466,0 1.5466,0 0,0.84956 0,0.84957 0.4976,-0.49755 c 1.8947,-1.89469 5.4137,-1.91929 7.4567,-0.0521 l 0.7737,0.70715 0.6472,-0.56969 c 0.8635,-0.76007 1.65,-1.12186 3.0299,-1.39373 0.9255,-0.18231 1.3199,-0.19657 2.0374,-0.0736 2.3987,0.41086 4.0787,1.9743 4.5519,4.23573 0.099,0.47336 0.1561,2.77736 0.1561,6.30133 l 0,5.55514 -1.6193,0 -1.6194,0 0,-5.26437 0,-5.26437 -0.3933,-0.75293 c -0.5344,-1.02295 -1.2765,-1.53157 -2.3806,-1.63169 -1.5056,-0.13652 -2.573,0.422 -3.196,1.67212 l -0.3666,0.73564 0,5.2528 0,5.2528 -1.6131,0 -1.6131,0 -0.041,-5.38605 -0.041,-5.38606 -0.395,-0.67201 c -0.2172,-0.3696 -0.6562,-0.84484 -0.9753,-1.05609 -0.5037,-0.33333 -0.7214,-0.38408 -1.6468,-0.38408 -1.2492,0 -1.946,0.28033 -2.499,1.00522 -0.7128,0.9346 -0.7372,1.15411 -0.7438,6.70423 l -0.01,5.17484 -1.5842,3e-5 -1.5841,2e-5 0.037,-7.9559 z m 27.0688,-2e-5 0,-7.95587 1.5489,0 1.5489,0 0,7.95587 0,7.95587 -1.5489,0 -1.5489,0 0,-7.95587 z m 7.8854,0 0,-7.95587 1.549,0 1.5489,0 0,0.8628 0,0.8628 0.6196,-0.57117 c 0.8221,-0.75777 1.5345,-1.10445 2.6791,-1.30378 2.2822,-0.39741 4.7369,0.84014 5.6823,2.86471 0.535,1.14575 0.5942,1.90633 0.5942,7.64124 l 0,5.55514 -1.6193,0 -1.6194,0 0,-5.2552 0,-5.25519 -0.3872,-0.76364 c -0.5464,-1.07745 -1.3048,-1.57912 -2.5025,-1.65539 -1.5741,-0.10023 -2.7611,0.70036 -3.282,2.21352 -0.1141,0.33124 -0.1648,2.05511 -0.1648,5.59728 l 0,5.11862 -1.5489,0 -1.549,0 0,-7.95587 z m -7.8854,-12.88429 0,-1.54893 1.5489,0 1.5489,0 0,1.54893 0,1.54893 -1.5489,0 -1.5489,0 0,-1.54893 z m 31.6906,-8.17046 c -1.3956,-0.29455 -4.1691,-1.98797 -4.0633,-2.48084 0.023,-0.10791 0.5483,-0.59991 1.167,-1.09334 l 1.1247,-0.89714 0.4242,0.35824 c 1.5498,1.30889 4.0715,1.36947 5.4015,0.12977 0.6678,-0.62248 0.9159,-1.33998 0.9812,-2.83751 l 0.061,-1.40295 -0.539,0.47322 c -0.2964,0.26026 -0.9538,0.66949 -1.4608,0.90939 -0.8256,0.39057 -1.0545,0.43527 -2.1893,0.42738 -1.6152,-0.0113 -2.5848,-0.36833 -3.6544,-1.34588 -1.0431,-0.95333 -1.4462,-1.82368 -1.622,-3.50192 -0.1821,-1.74049 -0.1809,-4.94521 0,-6.54694 0.2488,-2.17169 1.1455,-3.52925 2.8888,-4.37329 0.755,-0.36551 0.9797,-0.40532 2.3147,-0.40997 1.3095,-0.005 1.569,0.0373 2.2699,0.36591 0.4352,0.20409 1.053,0.60749 1.3728,0.89646 l 0.5816,0.52539 0,-0.86125 0,-0.86126 1.549,0 1.5489,0 0,8.55432 c 0,9.21309 0,9.22256 -0.7565,10.70676 -0.7215,1.42008 -1.9205,2.43117 -3.5462,2.99048 -0.9584,0.32975 -2.9292,0.47032 -3.8548,0.27497 z m 3.6025,-10.0065 c 1.255,-0.77557 1.5045,-1.63506 1.4377,-4.95161 -0.048,-2.38941 -0.059,-2.46401 -0.431,-3.02635 -1.1427,-1.72594 -3.3446,-2.06892 -4.8087,-0.74899 -0.9684,0.87305 -1.0691,1.26752 -1.0727,4.20252 0,2.80493 0.088,3.25697 0.814,4.02119 1.0071,1.06015 2.8,1.28236 4.0607,0.50324 z m -347.668796,3.53253 c 0.069,-0.11618 0.7043,-1.07652 1.412,-2.13411 1.7158,-2.56422 2.5329,-4.67057 3.2965,-8.49719 0.301,-1.50814 -0.063,-3.82627 -0.9178,-5.8437 -0.4502,-1.06281 -0.77,-1.63153 -2.07,-3.6816 -2.0467,-3.22756 -2.581,-4.6226 -2.581,-6.73847 0,-1.68086 0.2229,-2.32763 1.3598,-3.94459 1.3242,-1.88344 1.46,-2.30926 1.0494,-3.29204 -0.1078,-0.25774 -0.9618,-1.27492 -1.8981,-2.26041 -2.4926,-2.62385 -3.061,-3.68626 -2.9443,-5.50382 0.1338,-2.08675 1.545,-3.62949 4.1085,-4.49163 0.9595,-0.32273 2.2377,-0.3 3.5859,0.0638 1.1291,0.30467 1.4879,0.55993 0.7872,0.55993 -0.4251,0 -1.0496,0.57615 -1.0496,0.96847 0,0.50567 0.6957,1.11543 2.3637,2.07162 2.0775,1.19099 2.4969,1.51129 2.9164,2.22718 0.6292,1.07367 0.5983,2.22931 -0.083,3.09502 -0.153,0.19448 -0.9411,0.86535 -1.7513,1.49083 -2.0836,1.6085 -2.708,2.78711 -2.0996,3.96352 0.121,0.23405 0.7071,0.95157 1.3024,1.59451 2.3769,2.56677 3.8197,6.01138 3.8258,9.13355 0,1.55516 -0.2076,2.93584 -0.6441,4.21886 -0.6069,1.78442 -0.4516,1.96703 1.039,1.22213 3.122,-1.56004 4.6964,-6.84465 3.1233,-10.48325 -0.1339,-0.30978 -0.7574,-1.26027 -1.3856,-2.11218 -1.5922,-2.15933 -1.9472,-3.21526 -1.5554,-4.62633 0.2064,-0.7432 1.1123,-1.68269 1.9984,-2.07251 0.9689,-0.42629 2.979,-0.45795 4.3037,-0.0678 0.9925,0.29232 2.5576,1.23165 2.5576,1.53496 0,0.12152 -0.211,0.22406 -0.5567,0.27041 -0.7407,0.0994 -1.3577,0.56011 -1.5564,1.16229 -0.2363,0.71576 0.1028,1.59095 1.1442,2.95408 1.3859,1.81381 1.9471,3.40066 1.9522,5.51994 0.01,2.00881 -0.5195,3.4243 -1.787,4.82504 -0.9635,1.06472 -2.106,1.81577 -4.8287,3.17452 -1.2005,0.59904 -2.6326,1.39959 -3.1826,1.779 -1.576,1.08731 -3.8581,3.79049 -3.8581,4.57013 0,0.18583 0.037,0.33787 0.082,0.33787 0.045,0 0.8348,-0.098 1.7552,-0.21772 1.5099,-0.19642 1.8171,-0.19642 3.1399,0 1.8687,0.27746 4.1879,0.28266 5.1009,0.0114 1.1151,-0.33125 1.9641,-0.95275 2.4487,-1.79259 0.6087,-1.05476 0.8038,-1.80177 1.2049,-4.61199 0.3683,-2.58041 0.6224,-3.66743 1.0569,-4.5191 0.4304,-0.84358 1.4877,-2.03981 2.2061,-2.496 1.238,-0.78623 2.9623,-1.09192 3.9002,-0.69145 l 0.4064,0.17351 -0.5604,0.37082 c -0.3082,0.20396 -0.6722,0.60661 -0.809,0.89479 -0.4209,0.88703 -0.2788,1.28036 1.5211,4.20988 1.4859,2.41849 1.5883,5.02432 0.3003,7.64115 -0.7043,1.43085 -1.6557,2.41854 -3.0068,3.12147 -1.6525,0.85971 -2.6365,1.04558 -5.0873,0.96095 -1.7425,-0.0602 -2.3411,-0.14646 -4.0835,-0.5886 -2.903,-0.73661 -4.9747,-0.82528 -6.9703,-0.29834 -3.2378,0.85499 -6.4685,2.99056 -9.288,6.13968 -0.4507,0.50341 -0.7631,0.82024 -0.6941,0.70407 z m 288.089596,-0.009 c -3.4513,-0.57701 -5.3031,-3.02593 -5.5247,-7.30641 -0.2189,-4.22762 1.3224,-7.37391 4.1475,-8.46627 1.1212,-0.43351 3.0786,-0.5284 4.2043,-0.20381 1.1677,0.33669 2.1457,0.93078 2.9739,1.80644 1.3036,1.37844 1.7108,2.56812 1.8288,5.34346 l 0.082,1.93617 -4.9962,0 c -2.748,0 -5.0279,0.0317 -5.0665,0.0703 -0.039,0.0387 -0.022,0.42643 0.037,0.86169 0.2208,1.6269 1.3617,2.74484 3.1062,3.04365 0.7973,0.13658 1.017,0.11911 1.909,-0.1518 0.5696,-0.17304 1.2897,-0.52131 1.6562,-0.80103 l 0.6483,-0.49488 1.1209,0.95273 c 0.6165,0.524 1.1209,0.99982 1.1209,1.05736 0,0.18385 -1.594,1.37113 -2.3258,1.73237 -1.3431,0.66295 -3.2377,0.90161 -4.922,0.62001 z m 4.4316,-9.75151 c 0,-0.69472 -0.4526,-1.81831 -0.9585,-2.37935 -0.9008,-0.99924 -2.2029,-1.34149 -3.5584,-0.93537 -1.1817,0.35403 -2.2421,1.78956 -2.2421,3.03519 l 0,0.606 3.3795,0 3.3795,0 0,-0.32647 z m 11.196,9.74548 c -1.184,-0.24142 -2.3442,-0.8879 -3.1957,-1.78067 -1.4601,-1.53072 -1.8178,-2.75392 -1.8198,-6.22401 0,-3.4825 0.4135,-4.87988 1.8905,-6.35685 1.262,-1.2621 2.646,-1.80664 4.6077,-1.813 2.4454,-0.008 4.4276,1.04817 5.5857,2.97612 0.6424,1.06951 0.8909,2.16663 0.9834,4.34265 0.092,2.15856 -0.1028,4.01027 -0.5378,5.11665 -0.6187,1.57404 -2.2288,3.06432 -3.8334,3.54827 -0.927,0.27959 -2.7754,0.37543 -3.6806,0.19084 z m 3.1297,-3.41732 c 0.4972,-0.25971 1.0652,-0.87167 1.3709,-1.4771 0.5884,-1.16502 0.5417,-5.16912 -0.075,-6.44317 -0.9523,-1.96709 -3.9763,-2.29483 -5.4163,-0.587 -0.7637,0.90566 -0.8349,1.23951 -0.8349,3.9137 0,2.66149 0.073,3.01035 0.8155,3.89071 0.8955,1.06199 2.825,1.38958 4.1398,0.70286 z m 21.5631,3.43025 c -1.4667,-0.24782 -3.0259,-1.24059 -3.9288,-2.50146 -0.8511,-1.18852 -1.1321,-2.26303 -1.2235,-4.67749 -0.1278,-3.37798 0.2729,-5.2499 1.427,-6.66655 1.2634,-1.55074 2.9866,-2.34819 5.0609,-2.34196 2.1083,0.006 3.4117,0.52788 4.7175,1.88765 1.5193,1.58224 1.8457,2.69211 1.8457,6.27599 0,3.5344 -0.3028,4.60257 -1.7475,6.16293 -1.4878,1.60702 -3.6975,2.2755 -6.1513,1.86089 z m 3.0457,-3.46175 c 0.7892,-0.40931 1.4225,-1.29079 1.6238,-2.26004 0.2452,-1.18123 0.1187,-4.60292 -0.1971,-5.32948 -1.217,-2.80042 -5.3794,-2.61107 -6.2208,0.28298 -0.3329,1.14509 -0.2476,5.11838 0.1259,5.87153 0.3422,0.68969 0.8797,1.21831 1.5703,1.5442 0.7573,0.35736 2.3033,0.30287 3.0979,-0.10919 z m 37.5773,3.39467 c -2.6359,-0.57326 -4.4641,-2.42455 -5.2153,-5.28131 -0.3307,-1.25745 -0.3294,-4.10155 0,-5.35086 0.9446,-3.5571 3.3845,-5.49166 6.9262,-5.49166 1.2126,0 2.26,0.24556 3.3056,0.77502 0.7001,0.35446 2.188,1.52936 2.2971,1.81385 0.039,0.10127 -0.4251,0.63325 -1.0539,1.20846 l -1.1234,1.02756 -0.5178,-0.49655 c -0.8926,-0.85588 -1.6284,-1.14681 -2.9117,-1.1512 -1.3622,-0.005 -2.2021,0.34424 -2.9601,1.22972 -1.2981,1.51655 -1.4415,5.39718 -0.2654,7.18245 0.4562,0.6925 1.4698,1.33001 2.2933,1.4424 0.3579,0.0489 0.7773,0.10702 0.9322,0.1293 0.7767,0.11173 2.152,-0.47524 3.0547,-1.30372 l 0.3792,-0.34803 1.1495,1.0379 1.1494,1.03791 -0.799,0.74371 c -1.7912,1.66718 -4.2168,2.32266 -6.643,1.79505 z m 13.0136,0.0653 c -2.3734,-0.39986 -4.018,-2.10643 -4.1632,-4.31999 -0.1182,-1.80256 0.5178,-3.29051 1.7767,-4.15662 1.154,-0.794 1.5206,-0.86626 4.8112,-0.94836 l 3.0275,-0.0756 0.046,-0.63365 c 0.1634,-2.2774 -0.715,-3.09893 -3.3114,-3.09707 -1.3769,6.9e-4 -2.0302,0.17953 -2.6509,0.72447 l -0.4877,0.42828 -1.1982,-0.88736 c -0.6589,-0.48805 -1.1981,-0.92903 -1.1981,-0.97994 0,-0.0509 0.3163,-0.3884 0.7028,-0.74996 1.2725,-1.19024 2.6943,-1.57409 5.3903,-1.45517 2.5996,0.11466 4.0756,0.74158 5.067,2.15232 0.7568,1.07669 0.8055,1.55736 0.8073,7.97439 l 0,5.87012 -1.5492,0.0439 -1.5492,0.0439 0,-0.66885 c 0,-0.70151 -0.1694,-0.85973 -0.4198,-0.39165 -0.5079,0.94904 -2.9526,1.48884 -5.1025,1.12664 z m 4.376,-3.19667 c 0.7812,-0.38501 1.0339,-0.95915 1.0568,-2.4011 l 0.019,-1.22733 -2.4696,0 c -2.7989,0 -3.4254,0.15736 -3.9398,0.98957 -0.7249,1.17299 -0.082,2.38219 1.5046,2.83138 0.9161,0.25934 3.1385,0.1476 3.8285,-0.19252 z m 11.8362,3.04159 c -1.3382,-0.19153 -2.1871,-0.79323 -2.7069,-1.91866 -0.3081,-0.66705 -0.3084,-0.6792 -0.3084,-10.52465 l 0,-9.85683 1.5489,0 1.5489,0 0.07,9.481 c 0.068,9.17966 0.079,9.48734 0.3438,9.68081 0.2868,0.20964 0.5129,0.24284 1.3811,0.2027 l 0.5281,-0.0244 0,1.52449 0,1.5245 -0.8922,0 c -0.4908,0 -1.1719,-0.04 -1.5137,-0.089 z m -143.6502,-9.66227 -0.036,-9.68082 -3.0627,-0.038 -3.0627,-0.038 0,-1.47577 0,-1.47579 7.8151,0 7.8151,0 0,1.47853 0,1.47852 -3.0275,0 -3.0274,0 0,9.71602 0,9.71602 -1.6888,0 -1.6888,0 -0.036,-9.68081 z m 11.44,-1.51373 0,-11.19455 1.5489,0 1.5489,0 0,4.08355 c 0,2.24595 0.041,4.08354 0.09,4.08354 0.05,0 0.371,-0.25911 0.7145,-0.57579 1.0348,-0.95382 1.701,-1.18435 3.4229,-1.18435 1.3869,0 1.5409,0.0292 2.4111,0.45763 1.1021,0.54254 1.9673,1.42632 2.4918,2.54516 l 0.3746,0.79912 0.041,6.09012 0.041,6.09011 -1.5545,0 -1.5546,0 0,-4.97327 c 0,-5.78296 -0.05,-6.1162 -1.0542,-7.0834 -1.5345,-1.47727 -4.0058,-1.0361 -4.9483,0.88332 l -0.4045,0.82368 -0.043,5.17484 -0.043,5.17483 -1.5411,0 -1.5409,0 0,-11.19454 z m 51.7848,10.99418 c -1.0846,-0.38712 -1.7868,-1.10946 -2.0636,-2.12303 -0.1043,-0.38193 -0.1541,-3.70247 -0.1546,-10.31447 l 0,-9.75123 1.5489,0 1.5489,0 0,9.28696 c 0,6.70718 0.045,9.38584 0.1622,9.64291 0.195,0.428 0.5329,0.55167 1.4219,0.52047 l 0.6689,-0.0235 0,1.48112 0,1.48111 -1.3025,-0.006 c -0.7164,-0.003 -1.5396,-0.0908 -1.8293,-0.19419 z m 39.1796,-7.75551 0,-7.95587 1.549,0 1.5489,0 0,7.95587 0,7.95587 -1.5489,0 -1.549,0 0,-7.95587 z m 0,-12.88429 0,-1.54893 1.549,0 1.5489,0 0,1.54893 0,1.54894 -1.5489,0 -1.549,0 0,-1.54894 z m -69.5452,-14.72617 c -2.3896,-0.64264 -3.9181,-2.24576 -4.6212,-4.84667 -0.3427,-1.26783 -0.3416,-4.75542 0,-6.05491 0.9494,-3.59178 3.8341,-5.61543 7.2574,-5.09125 2.5427,0.38932 4.4174,1.9598 5.2371,4.38719 0.2545,0.75394 0.3123,1.26277 0.3277,2.88665 l 0.019,1.97136 -4.898,0.0299 c -2.6939,0.0164 -4.9524,0.0635 -5.0187,0.10445 -0.3476,0.2148 0.2944,2.11206 0.9475,2.80039 0.7359,0.77547 1.3762,1.00651 2.7735,1.00068 1.4188,-0.006 2.1823,-0.26381 3.0585,-1.03307 l 0.4948,-0.43448 1.1691,1.01191 1.1691,1.0119 -0.7305,0.65427 c -1.3954,1.24981 -3.0444,1.83033 -5.1553,1.81497 -0.7002,-0.005 -1.6144,-0.10108 -2.0316,-0.2133 z m 4.9946,-9.94512 c -0.2068,-1.29334 -0.8589,-2.31734 -1.7751,-2.78731 -2.2069,-1.13209 -4.9251,0.47506 -4.9251,2.91202 l 0,0.46776 3.3975,0 3.3975,0 -0.095,-0.59247 z m 16.5338,9.90214 c -0.426,-0.13771 -1.0568,-0.39569 -1.4018,-0.57329 -0.662,-0.3407 -2.2934,-1.80581 -2.2276,-2.00043 0.021,-0.0628 0.6027,-0.5251 1.2921,-1.02717 l 1.2535,-0.91285 0.4975,0.43679 c 0.7874,0.69132 1.5147,0.9566 2.6281,0.95853 1.2422,0.002 2.1957,-0.41162 2.9328,-1.27273 0.9402,-1.09846 0.9395,-1.09031 0.9395,-10.0133 l 0,-8.00072 1.6897,0 1.6898,0 0,8.20229 c 0,9.04253 -0.018,9.23873 -0.8739,10.84428 -0.8595,1.61265 -2.7682,3.04833 -4.6157,3.47196 -0.9971,0.22862 -2.9217,0.17124 -3.8019,-0.11336 z m 18.0729,0.0656 c -1.165,-0.28257 -2.2104,-0.87287 -2.9719,-1.67815 -1.3221,-1.39792 -1.8351,-2.86013 -1.9593,-5.58495 -0.2274,-4.99173 1.773,-8.17556 5.501,-8.75515 3.4595,-0.53783 6.6851,1.67251 7.3926,5.06577 0.086,0.4104 0.1557,1.53665 0.1557,2.50276 l 0,1.75658 -4.945,-0.0104 c -2.7196,-0.006 -4.9735,0.0183 -5.0085,0.0533 -0.035,0.0351 0.013,0.4523 0.1062,0.92726 0.2277,1.15762 0.7899,1.97297 1.713,2.48439 0.6661,0.36909 0.8708,0.41081 2.009,0.40964 1.1012,-10e-4 1.3615,-0.0508 1.9865,-0.37943 0.3955,-0.20798 0.9036,-0.53336 1.1291,-0.72308 l 0.41,-0.34494 1.1776,1.0029 1.1777,1.00289 -0.6752,0.59417 c -0.8524,0.75005 -2.034,1.38311 -3.0994,1.66063 -0.9858,0.25679 -3.0722,0.26477 -4.0991,0.0157 z m 4.9511,-9.83292 c -0.219,-1.09514 -0.5431,-1.81188 -1.0604,-2.34497 -1.0887,-1.12178 -2.9523,-1.26333 -4.2899,-0.32583 -0.6379,0.44706 -1.2696,1.58818 -1.4005,2.52999 l -0.083,0.59845 3.4627,0 3.4627,0 -0.092,-0.45764 z m 40.7667,9.74163 c -0.5793,-0.15164 -1.4347,-0.4561 -1.901,-0.67657 -0.8715,-0.41209 -2.6079,-1.62152 -2.6079,-1.81648 0,-0.0602 0.4732,-0.57947 1.0515,-1.15398 l 1.0517,-1.04456 0.5325,0.42527 c 0.8594,0.68632 1.7416,1.14822 2.6391,1.38194 0.9543,0.24849 2.5761,0.28523 3.3313,0.0755 1.3258,-0.36826 2.0051,-1.33927 1.6848,-2.40824 -0.2432,-0.81165 -0.8516,-1.04466 -3.2503,-1.24473 -2.2417,-0.18699 -3.5553,-0.53856 -4.3894,-1.17473 -1.4906,-1.13689 -2.005,-3.04206 -1.382,-5.11902 0.783,-2.61106 4.5218,-3.91767 8.3867,-2.93106 1.0305,0.26309 2.3646,0.90418 3.0112,1.44704 l 0.4868,0.40878 -0.9468,1.13523 -0.9469,1.13523 -0.8073,-0.48685 c -1.1433,-0.68947 -2.1421,-0.95741 -3.5531,-0.95316 -1.6509,0.005 -2.4297,0.44415 -2.6689,1.50501 -0.2666,1.18187 0.5868,1.83624 2.5985,1.9924 0.6195,0.0481 1.5383,0.11999 2.0417,0.15976 2.4436,0.19304 3.8785,1.18414 4.4369,3.06461 0.2741,0.92271 0.2674,2.40804 -0.015,3.23487 -0.4846,1.42207 -2.1908,2.72287 -4.103,3.12808 -1.3569,0.28753 -3.4022,0.2507 -4.6819,-0.0843 z m -118.1441,-9.56562 0,-9.71602 -3.0979,0 -3.0978,0 0,-1.54893 0,-1.54892 7.815,0 7.8151,0 0,1.54892 0,1.54893 -3.0275,0 -3.0274,0 0,9.71602 0,9.71602 -1.6898,0 -1.6897,0 0,-9.71602 z m 11.4058,-1.54893 0,-11.26494 1.5489,0 1.5489,0 0,4.08353 c 0,2.24596 0.038,4.08355 0.084,4.08355 0.046,0 0.3694,-0.25134 0.7184,-0.55855 1.7708,-1.5587 4.8616,-1.61922 6.7536,-0.13224 0.8247,0.64812 1.4251,1.51265 1.7369,2.50098 0.2635,0.83549 0.2822,1.28185 0.2822,6.72376 l 0,5.82886 -1.5489,0 -1.5489,0 -0.01,-4.96361 c 0,-2.87662 -0.064,-5.23005 -0.148,-5.59727 -0.1802,-0.78972 -0.6749,-1.51458 -1.3416,-1.96576 -0.6092,-0.41234 -1.9919,-0.5545 -2.7999,-0.28785 -0.7179,0.23694 -1.4719,0.93694 -1.8207,1.69036 -0.2779,0.60024 -0.2956,0.91016 -0.3364,5.87889 l -0.043,5.24524 -1.541,0 -1.5411,0 0,-11.26495 z m 75.1491,8.62202 c -0.4504,-1.45063 -1.5751,-4.98935 -2.4994,-7.86381 -0.9243,-2.87447 -1.6805,-5.26651 -1.6805,-5.31565 0,-0.0491 0.7445,-0.0889 1.6545,-0.0884 l 1.6545,6.9e-4 1.4667,5.38512 c 0.8067,2.96181 1.5131,5.47664 1.5699,5.5885 0.085,0.16732 2.1545,-5.92225 3.4569,-10.17091 l 0.2497,-0.81475 1.1966,0.0403 1.1965,0.0403 0.3573,1.12649 c 1.8495,5.83178 3.23,9.93247 3.3038,9.81323 0.049,-0.0795 0.7253,-2.47844 1.5026,-5.33093 0.7774,-2.85249 1.4465,-5.29724 1.4868,-5.43277 0.065,-0.21698 0.2762,-0.24643 1.7689,-0.24643 1.5568,0 1.6875,0.0201 1.6005,0.24643 -0.1301,0.33804 -2.4339,7.49213 -2.7775,8.62473 -0.1527,0.50339 -0.719,2.29347 -1.2584,3.97793 l -0.9808,3.06266 -1.3966,0 -1.3966,0 -0.2001,-0.66886 c -1.642,-5.48845 -3.0991,-10.27131 -3.1609,-10.3755 -0.104,-0.1753 -0.1722,0.034 -1.936,5.93992 l -1.5244,5.10444 -1.4176,-0.003 -1.4176,-0.003 -0.8188,-2.63751 z m 21.0253,-5.31294 0,-7.95587 1.549,0 1.549,0 0,7.95587 0,7.95587 -1.549,0 -1.549,0 0,-7.95587 z m 23.234,-3.30908 0,-11.26494 1.549,0 1.5489,0 0,4.08353 c 0,2.24596 0.033,4.08355 0.072,4.08355 0.04,0 0.4136,-0.27792 0.8306,-0.61761 1.0082,-0.82112 1.9552,-1.13187 3.4622,-1.1361 1.0548,-0.003 1.3088,0.0495 2.1404,0.4421 1.7246,0.8142 2.8044,2.27525 3.0777,4.16423 0.07,0.48339 0.1283,3.27094 0.1299,6.19455 l 0,5.31564 -1.6131,0 -1.613,0 -0.041,-5.38605 -0.041,-5.38606 -0.3951,-0.67201 c -0.5584,-0.95004 -1.3168,-1.41477 -2.4237,-1.48525 -1.5643,-0.0996 -2.5702,0.48183 -3.1824,1.83941 -0.3286,0.72861 -0.3346,0.82191 -0.3805,5.91513 l -0.047,5.17483 -1.5383,0 -1.5382,0 0,-11.26495 z m -23.234,-9.64561 0,-1.61933 1.549,0 1.549,0 0,1.61933 0,1.61934 -1.549,0 -1.549,0 0,-1.61934 z"
     style="fill:#b32018;fill-opacity:1" />
</svg>
